# xmcd CD database file
#
# Track frame offsets:
#	150
#	23868
#	50783
#	69530
#	88864
#	106008
#	126093
#	143973
#	162770
#	181523
#	200833
#	223958
#	253275
#	279228
#
# Disc length: 3965 seconds
#
# Revision: 0
# Processed by: cddbd v1.5.2PL0 Copyright (c) Steve Scherf et al.
# Submitted via: CDex 1.51
#
DISCID=d30f7b0e
DTITLE=Trijntje Oosterhuis - See you as I do
DYEAR=2006
DGENRE=Jazz
TTITLE0=Everybody needs somebody
TTITLE1=See you as I do
TTITLE2=To forget you
TTITLE3=Hunting game
TTITLE4=On the 4th of July
TTITLE5=It ins't over
TTITLE6=How I wish
TTITLE7=Friend of mine
TTITLE8=Joy
TTITLE9=My angel
TTITLE10=What more can I say
TTITLE11=Wild horses
TTITLE12=Mother's love
TTITLE13=Where is the love
EXTD=YEAR: 2006
EXTT0=
EXTT1=
EXTT2=
EXTT3=
EXTT4=
EXTT5=
EXTT6=
EXTT7=
EXTT8=
EXTT9=
EXTT10=
EXTT11=
EXTT12=
EXTT13=
PLAYORDER=
